<svg width="25" height="25" viewBox="0 0 25 25" fill="none" xmlns="http://www.w3.org/2000/svg">
<path d="M24.6593 15.7174L24.5305 15.528L24.4238 15.7308C23.7278 17.0532 21.4136 17.8435 19.5785 17.8435C17.2417 17.8435 5.70468 17.4923 4.20272 17.4068C3.90581 17.3892 3.59569 17.381 3.22668 17.381C2.99779 17.381 2.78525 17.3838 2.57969 17.3865C2.40116 17.3889 2.2327 17.3912 2.07442 17.3912C1.58054 17.3912 1.17443 17.259 0.877961 17.1625C0.685834 17.1 0.534048 17.0506 0.408349 17.0506C0.311433 17.0506 0.232898 17.0804 0.174946 17.1393C0.0990533 17.2163 0.0649868 17.3359 0.0676835 17.5156C0.0906881 19.0705 0.913954 19.1907 2.07447 19.1907C2.23385 19.1907 2.40353 19.1885 2.58338 19.1861C2.788 19.1834 2.99961 19.1806 3.22668 19.1806C3.59013 19.1806 3.89513 19.1886 4.18676 19.2059C5.69053 19.2915 17.2394 19.643 19.5785 19.643C20.7658 19.643 22.0782 19.3277 23.0893 18.7998C24.2528 18.1921 24.8935 17.3745 24.8935 16.4973C24.8935 16.2083 24.8147 15.9459 24.6593 15.7174Z" fill="white"/>
<path d="M2.02502 16.6445C2.18325 16.6445 2.35154 16.6422 2.53002 16.6399C2.73305 16.6371 2.94306 16.6343 3.16837 16.6343C3.52967 16.6343 3.8322 16.6423 4.12091 16.6596C5.61285 16.7453 17.072 17.0967 19.3933 17.0967C20.5717 17.0967 21.8743 16.7814 22.8777 16.2532C24.0323 15.6455 24.6681 14.8279 24.6681 13.951C24.6681 12.6792 23.2171 12.2684 21.6808 11.8335C20.8431 11.5964 19.977 11.3512 19.2451 10.9589C18.9154 10.7818 18.4128 10.5251 17.8003 10.2183C17.8012 10.2006 17.8029 10.183 17.8029 10.1651C17.8029 9.64141 17.377 9.21544 16.8533 9.21544C16.6183 9.21544 16.4034 9.30173 16.2374 9.44372C16.0155 9.33464 15.7881 9.22303 15.5567 9.10972C15.536 8.60428 15.1195 8.19916 14.6091 8.19916C14.4029 8.19916 14.2124 8.26592 14.0566 8.37797C13.8491 8.27709 13.6413 8.17616 13.4341 8.07561C13.4385 8.03863 13.4414 8.0012 13.4414 7.96307C13.4414 7.43946 13.0155 7.01349 12.4919 7.01349C12.2291 7.01349 11.991 7.12087 11.8189 7.2939C9.79478 6.31648 8.13532 5.5226 7.98661 5.4515C7.89603 5.38969 7.79504 5.35706 7.69366 5.35706C7.53021 5.35706 7.37309 5.43653 7.2732 5.56993L6.15511 7.0693C6.0053 7.27221 5.94647 7.47672 5.98021 7.67732C6.04702 8.07479 6.45703 8.35634 6.78647 8.58254C6.91762 8.67263 7.11266 8.80653 7.14397 8.87153C7.14353 8.87197 7.14304 8.87246 7.1426 8.8729C6.96038 9.05105 6.37552 9.31621 5.51093 9.31621C5.01116 9.31621 4.48453 9.22072 3.98795 9.03993C3.38031 8.81869 3.12924 8.21166 2.92754 7.72388C2.75886 7.31591 2.61312 6.96363 2.28936 6.96363C2.04373 6.96363 1.75954 7.18399 1.33764 7.7022C-0.0964035 9.52495 -0.0293712 12.31 0.0196098 14.3435C0.0248381 14.5613 0.0299013 14.7706 0.0328181 14.9692C0.0556025 16.5243 0.872869 16.6445 2.02502 16.6445ZM14.0442 10.9941C14.0442 10.9941 14.2282 10.8121 14.4555 10.8801C14.6534 10.9393 15.1212 11.0654 15.4075 11.1365C15.6522 11.1973 15.4312 11.3897 15.4312 11.3897L11.7153 14.7909C11.7124 14.7931 11.5612 14.9309 11.3319 14.9309C10.9617 14.9309 10.244 14.9281 9.95152 14.9281C9.70843 14.9281 9.91013 14.723 9.91013 14.723C9.91013 14.723 14.0437 10.9941 14.0442 10.9941ZM11.2149 10.1913C11.2159 10.1904 11.5017 9.90855 11.8458 10.0175C12.0203 10.0727 12.4297 10.1743 12.6909 10.2474C12.9142 10.3099 12.6774 10.5402 12.6773 10.5405L8.07753 14.7107C8.07434 14.7131 7.96796 14.9053 7.60946 14.9053C7.2049 14.9053 6.43293 14.9238 6.11708 14.9238C5.93855 14.9238 6.09727 14.7318 6.0971 14.7319L11.2149 10.1913Z" fill="white"/>
</svg>
