<svg width="24" height="24" viewBox="0 0 24 24" fill="none" xmlns="http://www.w3.org/2000/svg">
<path d="M8.19923 18.3996L11.1998 14.3968C11.5998 13.8632 12.4001 13.8632 12.8001 14.3968L15.8007 18.3996C16.2949 19.0588 15.8245 19.9994 15.0006 19.9994H8.99937C8.17544 19.9994 7.70503 19.0588 8.19923 18.3996Z" fill="white"/>
<path d="M2.32698 5.63803C2 6.27976 2 7.11984 2 8.8V12.2C2 13.8802 2 14.7202 2.32698 15.362C2.6146 15.9265 3.07354 16.3854 3.63803 16.673C4.24016 16.9798 5.01691 16.9988 6.49839 16.9999C6.65582 17 6.80456 16.9259 6.89899 16.7999L9.59951 13.1974C10.7995 11.5966 13.2004 11.5966 14.4004 13.1974L17.1009 16.7999C17.1953 16.9259 17.3441 17 17.5015 16.9999C18.983 16.9988 19.7598 16.9798 20.362 16.673C20.9265 16.3854 21.3854 15.9265 21.673 15.362C22 14.7202 22 13.8802 22 12.2V8.8C22 7.11984 22 6.27976 21.673 5.63803C21.3854 5.07354 20.9265 4.6146 20.362 4.32698C19.7202 4 18.8802 4 17.2 4H6.8C5.11984 4 4.27976 4 3.63803 4.32698C3.07354 4.6146 2.6146 5.07354 2.32698 5.63803Z" fill="white"/>
</svg>
