<svg width="96" height="89" viewBox="0 0 96 89" fill="#111327" xmlns="http://www.w3.org/2000/svg">
<path d="M35.4321 49.7519V88.1214H0V57.8297C0 41.4293 1.95825 29.5574 5.87476 22.2139C11.0152 12.4227 19.1542 5.01802 30.2917 0L38.3695 12.851C31.638 15.666 26.6812 19.8885 23.499 25.5185C20.3169 31.0261 18.5422 39.1039 18.175 49.7519H35.4321ZM92.3439 49.7519V88.1214H56.9117V57.8297C56.9117 41.4293 58.87 29.5574 62.7865 22.2139C67.9269 12.4227 76.0659 5.01802 87.2035 0L95.2812 12.851C88.5498 15.666 83.5929 19.8885 80.4108 25.5185C77.2286 31.0261 75.4539 39.1039 75.0868 49.7519H92.3439Z" fill="#111327"/>
</svg>
