<svg width="96" height="89" viewBox="0 0 96 89" fill="#111327" xmlns="http://www.w3.org/2000/svg">
<path d="M59.8491 38.3695V-4.57764e-05H95.2812V30.2917C95.2812 46.6921 93.323 58.564 89.4065 65.9074C84.2661 75.6987 76.1271 83.1033 64.9895 88.1213L56.9117 75.2703C63.6432 72.4553 68.6001 68.2328 71.7822 62.6029C74.9644 57.0953 76.739 49.0175 77.1062 38.3695H59.8491ZM2.93738 38.3695V-4.57764e-05H38.3695V30.2917C38.3695 46.6921 36.4113 58.564 32.4948 65.9074C27.3543 75.6987 19.2154 83.1033 8.07779 88.1213L0 75.2703C6.73149 72.4553 11.6883 68.2328 14.8705 62.6029C18.0526 57.0953 19.8273 49.0175 20.1945 38.3695H2.93738Z" fill="#111327"/>
</svg>
